<?xml version="1.0" encoding="UTF-8"?>
<svg id="logos" xmlns="http://www.w3.org/2000/svg" viewBox="0 0 1080 1080">
  <g id="error">
    <path d="M540,240.5c-165.409,0-299.5,134.091-299.5,299.5s134.091,299.5,299.5,299.5,299.5-134.091,299.5-299.5-134.091-299.5-299.5-299.5ZM687.731,641.769c12.691,12.692,12.691,33.271,0,45.963-6.347,6.346-14.664,9.519-22.981,9.519s-16.635-3.173-22.981-9.519l-101.769-101.769-101.769,101.769c-6.347,6.346-14.664,9.519-22.981,9.519s-16.635-3.173-22.981-9.519c-12.691-12.692-12.691-33.271,0-45.963l101.769-101.769-101.769-101.769c-12.691-12.692-12.691-33.271,0-45.963,12.693-12.691,33.27-12.691,45.963,0l101.769,101.769,101.769-101.769c12.693-12.691,33.27-12.691,45.963,0,12.691,12.692,12.691,33.271,0,45.963l-101.769,101.769,101.769,101.769Z"/>
  </g>
</svg>