<?xml version="1.0" encoding="UTF-8"?>
<svg id="logos" xmlns="http://www.w3.org/2000/svg" xmlns:xlink="http://www.w3.org/1999/xlink" viewBox="0 0 1080 1080">
  <defs>
    <style>
      .cls-1 {
        filter: url(#outer-glow-8);
      }
    </style>
    <filter id="outer-glow-8" x="20" y="20" width="1040" height="1040" filterUnits="userSpaceOnUse">
      <feOffset dx="0" dy="0"/>
      <feGaussianBlur result="blur" stdDeviation="43"/>
      <feFlood flood-color="#000" flood-opacity="1"/>
      <feComposite in2="blur" operator="in"/>
      <feComposite in="SourceGraphic"/>
    </filter>
  </defs>
  <g id="facebook" class="cls-1">
    <path d="M891,149H189c-22,0-40,18-40,40v702c0,22,18,40,40,40h377.83v-303h-102.83v-118h102.83v-71h.28s-19.11-159.33,139.56-172.22c0,0,67.55,0,102.66,4.44v106.22h-68.44s-56.89-5.33-51.56,61.56h-.5v71h118.17l-16.778,118h-101.392v303h202.17c22,0,40-18,40-40V189c0-22-18-40-40-40Z"/>
  </g>
</svg>