<?xml version="1.0" encoding="UTF-8"?>
<svg id="logos" xmlns="http://www.w3.org/2000/svg" xmlns:xlink="http://www.w3.org/1999/xlink" viewBox="0 0 1080 1080">
  <defs>
    <style>
      .cls-1 {
        fill: none;
        stroke: #000;
        stroke-miterlimit: 10;
        stroke-width: 50px;
      }

      .cls-2 {
        filter: url(#outer-glow-5);
      }
    </style>
    <filter id="outer-glow-5" x="49" y="169" width="982" height="746" filterUnits="userSpaceOnUse">
      <feOffset dx="0" dy="0"/>
      <feGaussianBlur result="blur" stdDeviation="43"/>
      <feFlood flood-color="#000" flood-opacity="1"/>
      <feComposite in2="blur" operator="in"/>
      <feComposite in="SourceGraphic"/>
    </filter>
  </defs>
  <g id="mail" class="cls-2">
    <path class="cls-1" d="M854.826,323.163c0,13.687-5.189,27.373-15.576,37.751l-260.806,260.795c-20.754,20.765-54.726,20.765-75.491,0L242.148,360.914c-10.377-10.377-15.566-24.064-15.566-37.751h628.244Z"/>
    <path class="cls-1" d="M854.826,323.163h15.769c3.523,0,6.406,2.883,6.406,6.406v424.192c0,3.523-2.883,6.406-6.406,6.406H209.746c-3.523,0-6.406-2.883-6.406-6.406v-424.192c0-3.523,2.883-6.406,6.406-6.406h16.836"/>
  </g>
</svg>