<?xml version="1.0" encoding="UTF-8"?>
<svg id="logos" xmlns="http://www.w3.org/2000/svg" viewBox="0 0 1080 1080">
  <g id="check">
    <path d="M540.5,244.125c-165.133,0-299,133.867-299,299s133.867,299,299,299,299-133.867,299-299-133.867-299-299-299ZM699.834,476.209l-180.5,180.5c-6.443,6.444-14.889,9.666-23.334,9.666s-16.891-3.222-23.334-9.666l-91.5-91.5c-12.888-12.887-12.888-33.781,0-46.668,12.887-12.889,33.781-12.889,46.668,0l68.166,68.165,157.166-157.165c12.887-12.889,33.781-12.889,46.668,0,12.888,12.887,12.888,33.781,0,46.668Z"/>
  </g>
</svg>