<?xml version="1.0" encoding="UTF-8"?>
<svg id="logos" xmlns="http://www.w3.org/2000/svg" viewBox="0 0 1080 1080">
  <g id="warning">
    <path d="M540,240.5c-165.409,0-299.5,134.091-299.5,299.5s134.091,299.5,299.5,299.5,299.5-134.091,299.5-299.5-134.091-299.5-299.5-299.5ZM572.215,694.785c0,17.792-14.423,32.215-32.215,32.215s-32.215-14.423-32.215-32.215v-196.357c0-17.792,14.423-32.215,32.215-32.215s32.215,14.423,32.215,32.215v196.357ZM540,427.861c-20.672,0-37.431-16.758-37.431-37.431s16.758-37.431,37.431-37.431,37.431,16.758,37.431,37.431-16.758,37.431-37.431,37.431Z"/>
  </g>
</svg>